<svg width="33" height="34" viewBox="0 0 33 34" fill="none" xmlns="http://www.w3.org/2000/svg">
<path d="M21.7633 17.035C21.7633 18.3122 21.2559 19.5371 20.3528 20.4402C19.4497 21.3433 18.2248 21.8507 16.9476 21.8507C15.6703 21.8507 14.4454 21.3433 13.5423 20.4402C12.6392 19.5371 12.1318 18.3122 12.1318 17.035C12.1318 16.7605 12.1607 16.4924 12.2104 16.2323H10.5265V22.6485C10.5265 23.0948 10.8877 23.456 11.334 23.456H22.5627C22.7766 23.4556 22.9816 23.3703 23.1326 23.2189C23.2837 23.0675 23.3686 22.8624 23.3686 22.6485V16.2323H21.6847C21.7344 16.4924 21.7633 16.7605 21.7633 17.035ZM16.9476 20.2455C17.3693 20.2454 17.7868 20.1622 18.1764 20.0007C18.566 19.8392 18.9199 19.6026 19.2181 19.3043C19.5162 19.0061 19.7526 18.652 19.9139 18.2623C20.0752 17.8727 20.1582 17.4551 20.1581 17.0334C20.158 16.6116 20.0748 16.1941 19.9133 15.8045C19.7518 15.4149 19.5152 15.061 19.2169 14.7628C18.9187 14.4647 18.5646 14.2283 18.1749 14.067C17.7853 13.9057 17.3677 13.8227 16.9459 13.8228C16.0943 13.8231 15.2775 14.1616 14.6754 14.764C14.0734 15.3664 13.7352 16.1833 13.7354 17.035C13.7357 17.8867 14.0742 18.7034 14.6766 19.3055C15.279 19.9076 16.0959 20.2457 16.9476 20.2455ZM20.8002 13.6639H22.7249C22.8527 13.6639 22.9754 13.6132 23.066 13.523C23.1565 13.4327 23.2076 13.3102 23.208 13.1823V11.2576C23.208 11.1295 23.1571 11.0066 23.0665 10.916C22.9759 10.8254 22.853 10.7745 22.7249 10.7745H20.8002C20.672 10.7745 20.5491 10.8254 20.4585 10.916C20.3679 11.0066 20.317 11.1295 20.317 11.2576V13.1823C20.3186 13.4472 20.5353 13.6639 20.8002 13.6639ZM16.9476 1.62451C12.8605 1.62451 8.94074 3.24811 6.05072 6.13813C3.1607 9.02815 1.53711 12.9479 1.53711 17.035C1.53711 21.1221 3.1607 25.0418 6.05072 27.9318C8.94074 30.8218 12.8605 32.4454 16.9476 32.4454C18.9713 32.4454 20.9752 32.0468 22.8449 31.2724C24.7146 30.4979 26.4134 29.3628 27.8444 27.9318C29.2754 26.5008 30.4105 24.802 31.1849 22.9323C31.9594 21.0626 32.358 19.0587 32.358 17.035C32.358 15.0112 31.9594 13.0073 31.1849 11.1376C30.4105 9.26795 29.2754 7.56912 27.8444 6.13813C26.4134 4.70713 24.7146 3.57201 22.8449 2.79756C20.9752 2.02311 18.9713 1.62451 16.9476 1.62451ZM24.9738 23.2778C24.9738 24.2586 24.1712 25.0612 23.1904 25.0612H10.7047C9.72391 25.0612 8.92128 24.2586 8.92128 23.2778V10.7921C8.92128 9.81131 9.72391 9.00868 10.7047 9.00868H23.1904C24.1712 9.00868 24.9738 9.81131 24.9738 10.7921V23.2778Z" fill="white"/>
</svg>
