<svg width="34" height="33" viewBox="0 0 34 33" fill="none" xmlns="http://www.w3.org/2000/svg">
<g clip-path="url(#clip0_320_339)">
<path d="M17.0252 0.447266C25.9 0.447266 33.0777 7.62505 33.0777 16.4998C33.0777 25.3746 25.9 32.5524 17.0252 32.5524C8.15044 32.5524 0.972656 25.3746 0.972656 16.4998C0.972656 7.62505 8.15044 0.447266 17.0252 0.447266ZM14.0899 24.9618C21.1989 24.9618 25.0973 19.0682 25.0973 13.9543V13.4498C25.8541 12.8995 26.5191 12.2115 27.0236 11.4318C26.3357 11.7299 25.5789 11.9363 24.7992 12.051C25.6018 11.5694 26.221 10.8126 26.4962 9.91827C25.7394 10.354 24.9139 10.675 24.0425 10.8585C23.3316 10.1017 22.3225 9.64308 21.2218 9.64308C19.0891 9.64308 17.3463 11.3859 17.3463 13.5186C17.3463 13.8167 17.3692 14.1149 17.4609 14.39C14.2504 14.2295 11.3839 12.6931 9.48051 10.354C9.15945 10.9273 8.95306 11.5923 8.95306 12.3032C8.95306 13.6333 9.64103 14.8258 10.673 15.5137C10.0309 15.5137 9.43464 15.3303 8.93013 15.0321V15.078C8.93013 16.9585 10.2602 18.5178 12.026 18.8848C11.7049 18.9765 11.3609 19.0224 11.017 19.0224C10.7647 19.0224 10.5354 18.9994 10.2831 18.9536C10.7647 20.49 12.2094 21.6137 13.8835 21.6366C12.5534 22.6686 10.8794 23.2877 9.06773 23.2877C8.74667 23.2877 8.44856 23.2877 8.15044 23.2419C9.84742 24.3426 11.8884 24.9847 14.0669 24.9847" fill="white"/>
</g>
<defs>
<clipPath id="clip0_320_339">
<rect width="32.1051" height="32.1051" fill="white" transform="translate(0.972656 0.447266)"/>
</clipPath>
</defs>
</svg>
