<svg width="33" height="34" viewBox="0 0 33 34" fill="none" xmlns="http://www.w3.org/2000/svg">
<circle cx="16.0525" cy="17.035" r="16.0525" fill="white"/>
<path d="M16.7632 5.77594C10.981 5.77594 6.26832 10.4886 6.26832 16.2709C6.26832 18.1241 6.75547 19.9245 7.66622 21.513L6.18359 26.9564L11.7435 25.4949C13.279 26.3316 15.0052 26.7764 16.7632 26.7764C22.5455 26.7764 27.2581 22.0637 27.2581 16.2814C27.2581 13.475 26.1673 10.8381 24.187 8.8577C23.2161 7.87696 22.0596 7.09937 20.785 6.57026C19.5104 6.04116 18.1433 5.77113 16.7632 5.77594ZM16.7738 7.54451C19.1037 7.54451 21.2852 8.45527 22.9373 10.1073C23.7481 10.9179 24.3909 11.8805 24.8289 12.94C25.2669 13.9995 25.4914 15.135 25.4896 16.2814C25.4896 21.0894 21.5712 24.9972 16.7632 24.9972C15.1959 24.9972 13.6603 24.5842 12.3259 23.7793L12.0082 23.5993L8.70407 24.4677L9.58305 21.2483L9.37125 20.9094C8.49643 19.5206 8.03372 17.9121 8.03688 16.2709C8.04747 11.4629 11.9553 7.54451 16.7738 7.54451ZM13.0461 11.4205C12.8766 11.4205 12.5907 11.4841 12.3471 11.7488C12.1141 12.0136 11.4258 12.6596 11.4258 13.941C11.4258 15.233 12.3683 16.4721 12.4848 16.6521C12.633 16.8321 14.3487 19.4797 16.9856 20.6023C17.6104 20.8882 18.0976 21.047 18.4788 21.1635C19.1037 21.3647 19.6755 21.333 20.1309 21.2694C20.6392 21.1953 21.6771 20.634 21.8995 20.0198C22.1219 19.4056 22.1219 18.8866 22.0583 18.7701C21.9842 18.6642 21.8148 18.6007 21.55 18.4842C21.2852 18.3359 19.9932 17.7005 19.7603 17.6158C19.5167 17.5311 19.3684 17.4887 19.1672 17.7429C18.9978 18.0076 18.4894 18.6007 18.3412 18.7701C18.1823 18.9502 18.0341 18.9714 17.7799 18.8443C17.5045 18.7066 16.6573 18.4313 15.6618 17.5417C14.8782 16.8427 14.3592 15.9849 14.2004 15.7202C14.0733 15.466 14.1898 15.3071 14.3169 15.1906C14.4334 15.0742 14.6028 14.8835 14.7087 14.7247C14.8464 14.5764 14.8888 14.4599 14.9735 14.2905C15.0582 14.1104 15.0158 13.9622 14.9523 13.8351C14.8888 13.7186 14.3592 12.4054 14.1368 11.8865C13.925 11.3782 13.7132 11.4417 13.5438 11.4311C13.3955 11.4311 13.2261 11.4205 13.0461 11.4205Z" fill="#003049"/>
</svg>
